<?xml version="1.0" standalone="no"?>
<!DOCTYPE svg PUBLIC "-//W3C//DTD SVG 20010904//EN"
 "http://www.w3.org/TR/2001/REC-SVG-20010904/DTD/svg10.dtd">
<svg version="1.0" xmlns="http://www.w3.org/2000/svg"
 width="500.000000pt" height="500.000000pt" viewBox="0 0 500.000000 500.000000"
 preserveAspectRatio="xMidYMid meet">

<g transform="translate(0.000000,500.000000) scale(0.100000,-0.100000)"
fill="#000000" stroke="none">
<path d="M2530 3361 c0 -31 -98 -327 -132 -398 -11 -24 -24 -43 -29 -43 -5 0
-23 23 -40 50 -29 47 -49 57 -49 25 0 -8 -31 -76 -68 -150 -38 -74 -67 -137
-64 -140 3 -3 55 -4 116 -4 61 1 101 4 89 6 -13 2 -23 6 -23 9 0 2 32 35 72
72 114 107 163 172 188 248 16 48 36 82 67 115 l44 47 -78 96 c-42 53 -81 96
-85 96 -4 0 -8 -13 -8 -29z"/>
<path d="M2727 3103 c-4 -37 -7 -111 -7 -163 -1 -86 -2 -93 -14 -70 -8 14 -20
44 -27 68 -6 23 -15 42 -20 42 -9 0 -129 -236 -129 -255 0 -9 -9 -15 -22 -15
-15 0 -19 -3 -12 -10 7 -7 92 -11 232 -10 154 0 222 -3 222 -11 0 -6 -10 -14
-22 -17 -21 -6 -21 -7 7 -13 20 -4 6 -7 -45 -8 -87 -1 -147 -15 -175 -41 -29
-26 -86 -52 -207 -94 -58 -21 -114 -43 -124 -51 -41 -30 32 -63 201 -90 61
-10 167 -15 330 -15 l240 0 32 48 c40 60 61 102 83 168 20 57 16 64 -36 64
-28 0 -28 1 -12 35 9 20 18 25 49 25 l37 0 7 61 c4 33 4 94 0 135 -6 70 -17
96 -30 75 -15 -26 -117 -72 -165 -76 -28 -1 -61 -10 -75 -19 -13 -9 -28 -16
-33 -16 -5 0 -50 53 -100 118 -49 64 -110 136 -135 160 l-44 43 -6 -68z m433
-459 c0 -2 -12 -4 -26 -4 -14 0 -23 4 -20 9 6 8 46 4 46 -5z m-73 0 c-3 -3
-12 -4 -19 -1 -8 3 -5 6 6 6 11 1 17 -2 13 -5z"/>
<path d="M1783 2975 c-3 -9 -3 -19 1 -22 3 -4 6 1 6 11 0 10 5 14 12 10 7 -4
8 -3 4 4 -10 16 -15 15 -23 -3z"/>
<path d="M1793 2703 c-7 -2 -13 -11 -13 -19 0 -12 4 -12 20 -2 31 20 26 35 -7
21z"/>
<path d="M1834 2699 c-7 -12 9 -16 41 -9 l30 6 -33 5 c-18 3 -35 2 -38 -2z"/>
<path d="M2908 2673 c6 -2 18 -2 25 0 6 3 1 5 -13 5 -14 0 -19 -2 -12 -5z"/>
<path d="M2465 2632 c-84 -23 -110 -25 -373 -29 l-284 -5 7 -26 c17 -74 105
-216 168 -274 16 -16 26 -28 21 -28 -5 0 7 -14 26 -31 49 -43 124 -94 133 -91
4 1 7 -2 7 -7 0 -8 72 -42 86 -40 4 0 10 -3 13 -9 3 -5 38 -19 76 -32 59 -20
90 -24 200 -23 90 0 147 5 185 16 30 9 65 19 78 23 12 3 22 11 22 16 0 5 4 7
10 3 9 -6 50 13 61 28 3 5 10 8 15 7 17 -2 144 100 144 116 0 8 4 13 9 10 4
-3 16 3 25 13 17 19 13 19 -181 20 -272 1 -446 22 -573 70 -142 54 -115 121
71 181 56 18 117 43 137 56 19 13 43 24 53 24 11 0 17 7 16 18 -2 25 -46 23
-152 -6z"/>
</g>
</svg>
